<svg xmlns="http://www.w3.org/2000/svg" xmlns:xlink="http://www.w3.org/1999/xlink" width="48" height="48" viewBox="0 0 48 48">
    <defs>
        <path id="a" d="M29.583 0c3.056 0 5.556.712 7.5 2.135C39.028 3.56 40 5.59 40 8.23v29.48h-2.292c-1.666-2.917-4.375-4.376-8.125-4.376-2.083 0-3.923.643-5.52 1.927-1.598 1.285-2.605 2.865-3.021 4.74h-2.084c-.416-1.875-1.423-3.455-3.02-4.74-1.598-1.284-3.438-1.927-5.521-1.927-3.959 0-6.667 1.459-8.125 4.375H0V8.23C0 5.59.972 3.56 2.917 2.135 4.86.712 7.36 0 10.417 0c4.93 0 8.125 1.528 9.583 4.583C21.25 1.528 24.444 0 29.583 0zM19.167 36.146V8.125c-.07-2.153-.92-3.767-2.552-4.844-1.632-1.076-3.698-1.614-6.198-1.614-2.43 0-4.462.538-6.094 1.614-1.632 1.077-2.517 2.656-2.656 4.74v27.396h.104c1.805-2.5 4.687-3.75 8.646-3.75 3.75 0 6.666 1.493 8.75 4.479zm19.166-.73V7.189c-.277-3.681-3.194-5.521-8.75-5.521-2.57 0-4.67.573-6.302 1.718-1.632 1.146-2.448 2.796-2.448 4.948v27.813c2.084-2.986 5-4.48 8.75-4.48 4.098 0 7.014 1.25 8.75 3.75z"/>
    </defs>
    <g fill="none" fill-rule="evenodd" transform="translate(4 4)">
        <mask id="b" fill="#fff">
            <use xlink:href="#a"/>
        </mask>
        <use fill="#666" xlink:href="#a"/>
        <g fill="#FFF" mask="url(#b)">
            <path d="M-4-4h48v48H-4z"/>
        </g>
    </g>
</svg>
