<svg xmlns="http://www.w3.org/2000/svg" xmlns:xlink="http://www.w3.org/1999/xlink" width="48" height="48" viewBox="0 0 48 48">
    <defs>
        <path id="a" d="M19.406 11.667a.796.796 0 0 1-.25.586.816.816 0 0 1-.594.247.816.816 0 0 1-.593-.247.796.796 0 0 1-.25-.586c0-.799-.475-1.415-1.424-1.85-.95-.433-1.88-.65-2.795-.65a.816.816 0 0 1-.593-.248.796.796 0 0 1-.25-.586c0-.225.083-.42.25-.586A.816.816 0 0 1 13.5 7.5c.879 0 1.753.139 2.624.417.87.277 1.634.746 2.293 1.406.66.66.99 1.44.99 2.344zm4.219 0c0-1.25-.303-2.414-.91-3.49a7.952 7.952 0 0 0-2.373-2.643A12.279 12.279 0 0 0 17.1 3.919a11.444 11.444 0 0 0-3.599-.586c-1.213 0-2.413.196-3.6.586-1.186.39-2.267.93-3.242 1.615a7.952 7.952 0 0 0-2.373 2.643 6.992 6.992 0 0 0-.91 3.49c0 1.753.598 3.316 1.793 4.687.176.191.444.478.804.86.36.381.629.668.804.859 2.25 2.656 3.49 5.243 3.718 7.76h6.012c.228-2.517 1.468-5.104 3.718-7.76.175-.191.443-.478.804-.86.36-.381.628-.668.804-.859 1.195-1.371 1.793-2.934 1.793-4.687zm3.375 0c0 2.69-.905 5.017-2.716 6.979a36.888 36.888 0 0 0-1.964 2.265c-.519.66-1.042 1.49-1.569 2.487-.527.999-.826 1.932-.897 2.8.827.486 1.24 1.198 1.24 2.135 0 .643-.22 1.198-.66 1.667.44.469.66 1.024.66 1.667 0 .902-.396 1.606-1.187 2.109.229.4.343.807.343 1.224 0 .799-.277 1.415-.83 1.849-.554.434-1.235.651-2.044.651a4.217 4.217 0 0 1-1.582 1.823A4.164 4.164 0 0 1 13.5 40c-.826 0-1.59-.226-2.294-.677A4.217 4.217 0 0 1 9.624 37.5c-.809 0-1.49-.217-2.043-.651-.554-.434-.831-1.05-.831-1.849 0-.417.114-.825.343-1.224-.791-.503-1.187-1.207-1.187-2.11 0-.642.22-1.197.66-1.666a2.355 2.355 0 0 1-.66-1.667c0-.937.413-1.649 1.24-2.135-.07-.868-.37-1.801-.897-2.8-.527-.998-1.05-1.827-1.569-2.487a36.888 36.888 0 0 0-1.964-2.265C.906 16.684 0 14.358 0 11.666c0-1.718.391-3.32 1.173-4.804.783-1.484 1.81-2.717 3.085-3.698A15.377 15.377 0 0 1 8.583.846 14.756 14.756 0 0 1 13.5 0c1.67 0 3.31.282 4.917.846a15.377 15.377 0 0 1 4.325 2.318c1.274.981 2.302 2.214 3.085 3.698A10.151 10.151 0 0 1 27 11.667z"/>
    </defs>
    <g fill="none" fill-rule="evenodd" transform="translate(10.5 4)">
        <mask id="b" fill="#fff">
            <use xlink:href="#a"/>
        </mask>
        <use fill="#FFF" xlink:href="#a"/>
        <g fill="#FFF" mask="url(#b)">
            <path d="M-10.5-4h48v48h-48z"/>
        </g>
    </g>
</svg>
