<svg xmlns="http://www.w3.org/2000/svg" xmlns:xlink="http://www.w3.org/1999/xlink" width="48" height="48" viewBox="0 0 48 48">
    <defs>
        <path id="a" d="M34.816 12.153c.423.78-.502-1.383-2.14-1.383l-25.342.01c-.945 0-1.6.468-2.15 1.328-.55.863-5.184 8.01-5.184 9.523v9.712a2.75 2.75 0 0 0 2.758 2.74h34.484A2.75 2.75 0 0 0 40 31.344v-9.712c0-1.513-5.184-9.478-5.184-9.478s-.742-1.383 0 0zm-9.052 8.728a1.285 1.285 0 0 0-1.308.957c0 .07.01.14.01.21a4.485 4.485 0 0 1-8.97 0c0-.09.01-.177.015-.267-.32-.895-1.275-.9-1.275-.9H2.391l4.01-7.387s.736-1.326 1.771-1.286h23.891c.833 0 .975.3 1.575 1.286l4.076 7.392H25.766l-.002-.005zM11.365 6.887L8.317 3.994A.816.816 0 1 1 9.442 2.81l3.046 2.893a.815.815 0 1 1-1.123 1.183zm8.397-1.278a.813.813 0 0 1-.252-.57L19.4.838a.817.817 0 1 1 1.633-.043l.107 4.202a.815.815 0 0 1-1.375.612h-.003zm7.905 1.128a.815.815 0 0 1-.03-1.153l2.893-3.05a.816.816 0 1 1 1.183 1.125L28.82 6.707a.815.815 0 0 1-1.153.03z"/>
    </defs>
    <g fill="none" fill-rule="evenodd" transform="translate(4 7)">
        <mask id="b" fill="#fff">
            <use xlink:href="#a"/>
        </mask>
        <use fill="#000" fill-rule="nonzero" xlink:href="#a"/>
        <g fill="#FFF" mask="url(#b)">
            <path d="M-4-7h48v48H-4z"/>
        </g>
    </g>
</svg>
