<svg xmlns="http://www.w3.org/2000/svg" xmlns:xlink="http://www.w3.org/1999/xlink" width="48" height="48" viewBox="0 0 48 48">
    <defs>
        <path id="a" d="M39.668 20.04c.234.26.344.559.331.898a1.39 1.39 0 0 1-.37.898c-.13.104-.266.189-.409.254a1.068 1.068 0 0 1-.448.098 1.3 1.3 0 0 1-.506-.098.967.967 0 0 1-.39-.293l-1.674-1.758V38.75c0 .339-.124.632-.37.879a1.196 1.196 0 0 1-.877.371h-8.724c-.337 0-.63-.124-.876-.371a1.203 1.203 0 0 1-.37-.879v-12.5h-9.931l-.04 12.5c0 .339-.122.632-.37.879a1.196 1.196 0 0 1-.875.371H5.084c-.364 0-.663-.124-.896-.371a1.237 1.237 0 0 1-.35-.879V20.04l-1.675 1.757c-.26.234-.559.358-.896.371a1.223 1.223 0 0 1-.896-.332 1.39 1.39 0 0 1-.37-.898 1.23 1.23 0 0 1 .331-.899L19.143.391c.13-.13.273-.228.429-.293.155-.065.311-.098.467-.098.182 0 .35.033.506.098a.967.967 0 0 1 .39.293l18.733 19.648zm-5.959-2.423c0-.052.013-.104.04-.156L20.038 3.086 6.29 17.46c0 .052.006.104.02.156.012.052.019.104.019.156V37.5h6.192l.04-12.5c0-.339.123-.632.37-.879.246-.247.538-.371.876-.371H26.23c.338 0 .63.124.877.371.246.247.37.54.37.879v12.5h6.231V17.617z"/>
    </defs>
    <g fill="none" fill-rule="evenodd" transform="translate(4 4)">
        <mask id="b" fill="#fff">
            <use xlink:href="#a"/>
        </mask>
        <use fill="#3B9E46" xlink:href="#a"/>
        <g fill="#FFF" mask="url(#b)">
            <path d="M-4-4h48v48H-4z"/>
        </g>
    </g>
</svg>
