<svg xmlns="http://www.w3.org/2000/svg" xmlns:xlink="http://www.w3.org/1999/xlink" width="48" height="48" viewBox="0 0 48 48">
  <defs>
    <path id="inbox-a" d="M26.6406246,18.6499991 L34.8697918,18.6499991 C34.8524303,18.5984368 34.8307287,18.5296866 34.8046872,18.44375 C34.7786456,18.3578118 34.7569441,18.2890616 34.7395825,18.2374993 L29.2187495,5.45000031 L10.7812505,5.45000031 L5.26041594,18.2374993 C5.24305594,18.2718752 5.22135439,18.3406254 5.19531283,18.44375 C5.16927128,18.5468745 5.14756972,18.6156247 5.13020817,18.6499991 L13.3593754,18.6499991 L15.8333325,23.5999994 L24.166666,23.5999994 L26.6406246,18.6499991 Z M40,19.4234379 L40,31.8499994 C40,32.296875 39.8350691,32.6835937 39.5052073,33.0101553 C39.1753471,33.3367184 38.7847222,33.5 38.3333327,33.5 L1.66666731,33.5 C1.21527776,33.5 0.82465288,33.3367184 0.494791106,33.0101553 C0.164930887,32.6835937 0,32.296875 0,31.8499994 L0,19.4234379 C0,18.3578118 0.217013998,17.3007805 0.651041993,16.2523439 L6.84895859,2.02109338 C7.02256948,1.59140567 7.3394097,1.23046972 7.79947925,0.938280908 C8.2595488,0.646093636 8.71527835,0.5 9.16666634,0.5 L30.8333337,0.5 C31.2847217,0.5 31.7404512,0.646093636 32.2005208,0.938280908 C32.6605903,1.23046972 32.9774305,1.59140567 33.1510414,2.02109338 L39.348958,16.2523439 C39.782986,17.3007805 40,18.3578118 40,19.4234379 L40,19.4234379 Z"/>
  </defs>
  <g fill="none" fill-rule="evenodd" transform="translate(4 7)">
    <mask id="inbox-b" fill="#fff">
      <use xlink:href="#inbox-a"/>
    </mask>
    <use fill="#4A4A4A" xlink:href="#inbox-a"/>
    <g fill="#575B63" mask="url(#inbox-b)">
      <rect width="48" height="48" transform="translate(-4 -7)"/>
    </g>
  </g>
</svg>
