<svg xmlns="http://www.w3.org/2000/svg" xmlns:xlink="http://www.w3.org/1999/xlink" width="48" height="48" viewBox="0 0 48 48">
  <defs>
    <path id="answer-card-edit-a" d="M20.6815187,17.4135413 C21.2190643,17.4135413 25.652873,17.1032637 25.652873,16.7217488 L25.6513012,15.34133 C25.6513012,14.9598152 25.2159208,14.6511206 24.6783752,14.6527036 L22.734095,14.6542867 C22.1965495,14.6542867 21.761169,14.9645643 21.7627408,15.3460791 L21.7643125,16.726498 C21.7643125,17.1080128 22.199693,17.4151243 22.7372385,17.4151243 L20.6815187,17.4135413 Z M17.2439002,17.4214565 C17.7814457,17.4214565 18.2152544,17.1111789 18.2152544,16.7296641 L18.2136827,15.3492452 C18.2136827,14.9677304 17.7783022,14.6590359 17.2407567,14.6606189 L15.2964765,14.6622019 C14.7589309,14.6622019 14.3251222,14.9724795 14.3251222,15.3539944 L14.326694,16.7344132 C14.326694,17.115928 14.7620744,17.4246226 15.29962,17.4230396 L17.2439002,17.4214565 Z M9.8062817,17.5465174 C10.3438272,17.5465174 10.7776359,17.2362398 10.7776359,16.8547249 L10.7760642,15.4743061 C10.7760642,15.0927913 10.3391119,14.7840967 9.80313819,14.7856798 L7.85885796,14.7872628 C7.32131241,14.7872628 6.88593197,15.0975404 6.88750372,15.4790553 L6.88907548,16.8594741 C6.88907548,17.2394059 7.32445592,17.5481004 7.86200147,17.5481004 L9.8062817,17.5465174 Z M15.3231966,20.4434972 C14.785651,20.4434972 14.3518423,20.7537748 14.3518423,21.1352897 L14.3534141,22.5157085 C14.3534141,22.8972233 14.7887945,23.2059179 15.3263401,23.2043349 L17.2706203,23.2027518 C17.8081659,23.2027518 18.2419745,22.8924742 18.2419745,22.5109594 L18.2404028,21.1305405 C18.2404028,20.7490257 17.8050223,20.4419142 17.2674768,20.4419142 L15.3231966,20.4434972 Z M15.3106224,8.8349982 C14.7730768,8.8349982 14.3392682,9.14527581 14.3392682,9.52679067 L14.3408399,10.9072095 C14.3408399,11.2887243 14.7762204,11.5974189 15.3137659,11.5958359 L17.2580461,11.5942528 C17.7955917,11.5942528 18.2294004,11.2839752 18.2294004,10.9024604 L18.2278286,9.52204152 C18.2262569,9.14210974 17.7908764,8.83341517 17.2549026,8.83341517 L15.3106224,8.8349982 Z M3.3478763,0.0395774199 C1.50418938,0.0411604999 -0.00313864852,1.60046384 4.90804361e-06,3.50328887 L0.0251532224,24.7113976 L0.0377274026,35.5426196 C0.0392991579,37.4454446 1.54977074,39.0015818 3.39345766,38.9999988 L9.84400419,38.9999988 L25.0948804,38.9999988 L36.6521237,38.9604226 C38.4958106,38.9588395 40.0031386,37.3995362 39.9999951,35.4951281 C39.9999951,35.4951281 39.9807817,18.4676866 39.971175,9.95396584 C39.9687314,7.78843737 39.9638444,3.45738043 39.9638444,3.45738043 C39.9607008,1.55297237 38.4502293,-0.00158182568 36.6065423,1.20795495e-06 L3.3478763,0.0395774199 Z M36.0528742,35.8801409 L24.2929783,35.9174291 L21.0948804,38.9999988 L10.2160124,38.9604226 L11.2160124,35.9174291 L3.98102453,35.9174291 C3.49256796,35.8890901 2.96550999,35.2432582 2.96550999,34.5094262 L2.92542389,3.80034562 L2.93136255,4.34027895 C2.93136255,3.97187142 3.32331553,3.29770052 3.94390774,3.29471745 L36.0157574,3.25742925 C36.6318956,3.25892076 37.0312719,3.85105761 37.0312719,4.66543218 C37.0312719,4.66543218 37.0636513,7.99310035 37.0654194,9.53628896 C37.0655713,9.66890674 39.9998432,12.5173818 39.9999951,12.6499996 C40.0031919,15.4402951 39.9999951,9.18374194 39.9999951,20.25 C39.9999951,20.7392566 37.0655201,23.5965913 37.0654194,23.6197499 C37.0312719,31.4706465 37.0654194,34.4706465 37.0654194,34.4706465 C37.066904,35.2805464 36.6467423,35.8741748 36.0528742,35.8801409 Z M22.7356667,8.8254999 C22.1981212,8.8254999 21.7643125,9.13577751 21.7643125,9.51729238 L21.7658842,10.8977112 C21.7658842,11.279226 22.2012647,11.5879206 22.7388102,11.5863376 L24.6846622,11.5847545 C25.2222078,11.5847545 25.6560165,11.2744769 25.6560165,10.8929621 L25.6544447,9.51254323 C25.6544447,9.13261145 25.2190643,8.82391687 24.6815187,8.82391687 L22.7356667,8.8254999 Z M30.1638546,8.81758464 C29.6263091,8.81758464 29.1925004,9.12786225 29.1925004,9.50937711 L29.1940722,10.8897959 C29.1940722,11.2713108 29.6294526,11.5800053 30.1669981,11.5784223 L32.1112784,11.5768393 C32.6488239,11.5768393 33.0826326,11.2665617 33.0826326,10.8850468 L33.0810608,9.50462797 C33.0810608,9.12469618 32.6456804,8.81600161 32.1081349,8.81600161 L30.1638546,8.81758464 Z M7.89658045,20.4640769 C7.35903491,20.4640769 6.92522622,20.7743545 6.92522622,21.1558693 L6.92679797,22.5362882 C6.92679797,22.917803 7.36217842,23.2264976 7.89972396,23.2249145 L9.84400419,23.2233315 C10.3815497,23.2233315 10.8153584,22.9130539 10.8153584,22.531539 L10.8137867,21.1511202 C10.8137867,20.7711884 10.3768344,20.4624938 9.84086068,20.4624938 L7.89658045,20.4640769 Z M9.82985826,11.6037511 L7.88557803,11.6053341 C7.34803248,11.6053341 6.91265204,11.2982226 6.91265204,10.9167078 L6.91108028,9.53628896 C6.91108028,9.1547741 7.34488897,8.84449649 7.88243452,8.84449649 L9.82671474,8.84291346 C10.3642603,8.84133043 10.7996407,9.150025 10.7996407,9.53153982 L10.8012125,10.9119586 C10.8012125,11.2934735 10.3674038,11.6037511 9.82985826,11.6037511 Z M36.2600236,21.4706907 L20.3413729,37.4530159 L14.5469841,31.6586271 L30.5293093,15.7399764 L36.2600236,21.4706907 Z M40.0168251,15.0395558 C40.3988747,15.4216053 40.5792842,15.8885477 40.5580593,16.4403971 C40.5368343,16.9922464 40.3139754,17.4804134 39.8894759,17.9049129 L37.0241188,20.77027 L31.22973,14.9758812 L34.0950871,12.1105241 C34.5195866,11.6860246 35.0077536,11.4631657 35.5596029,11.4419407 C36.1114523,11.4207158 36.5783947,11.6011253 36.9604442,11.9831749 L40.0168251,15.0395558 Z M14.0375873,32.5500715 L19.4499285,37.9624127 L12,40 L14.0375873,32.5500715 Z"/>
  </defs>
  <g fill="none" fill-rule="evenodd" transform="translate(4 4)">
    <mask id="answer-card-edit-b" fill="#fff">
      <use xlink:href="#answer-card-edit-a"/>
    </mask>
    <use fill="#999" xlink:href="#answer-card-edit-a"/>
    <g fill="#FFF" mask="url(#answer-card-edit-b)">
      <rect width="48" height="48" transform="translate(-4 -4)"/>
    </g>
  </g>
</svg>
