<svg xmlns="http://www.w3.org/2000/svg" xmlns:xlink="http://www.w3.org/1999/xlink" width="48" height="48" viewBox="0 0 48 48">
    <defs>
        <path id="a" d="M28.295 9.604l-7.35 7.228v20.396c0 .759-.277 1.41-.831 1.955a2.736 2.736 0 0 1-1.989.817 2.736 2.736 0 0 1-1.989-.817c-.554-.544-.83-1.196-.83-1.955v-9.505h-1.612v9.505c0 .759-.276 1.41-.83 1.955a2.736 2.736 0 0 1-1.989.817 2.736 2.736 0 0 1-1.989-.817c-.554-.544-.83-1.196-.83-1.955V16.832L.705 9.604A2.272 2.272 0 0 1 0 7.921C0 7.26.235 6.7.705 6.238a2.35 2.35 0 0 1 1.712-.693 2.35 2.35 0 0 1 1.711.693l5.74 5.643h9.264l5.74-5.643a2.35 2.35 0 0 1 1.711-.693 2.35 2.35 0 0 1 1.712.693C28.765 6.7 29 7.26 29 7.92c0 .66-.235 1.22-.705 1.683zm-8.156-4.06c0 1.535-.55 2.843-1.649 3.924-1.1 1.08-2.43 1.621-3.99 1.621s-2.89-.54-3.99-1.621-1.649-2.389-1.649-3.923c0-1.535.55-2.843 1.649-3.924C11.61.541 12.94 0 14.5 0s2.89.54 3.99 1.621 1.649 2.389 1.649 3.924z"/>
    </defs>
    <g fill="none" fill-rule="evenodd" transform="translate(9.5 4)">
        <mask id="b" fill="#fff">
            <use xlink:href="#a"/>
        </mask>
        <use fill="#FFF" xlink:href="#a"/>
        <g fill="#FFF" mask="url(#b)">
            <path d="M-9.5-4h48v48h-48z"/>
        </g>
    </g>
</svg>
