<svg xmlns="http://www.w3.org/2000/svg" width="93" height="93" viewBox="0 0 93 93">
  <g fill="none" fill-rule="evenodd">
    <path fill="#FFBE00" d="M0.0182865169,43.8429242 C0.0182865169,33.7082727 0,24.0945152 0,11.9570758 C12.8773652,8.30706061 27.0509831,3.95015152 46.5,0 C65.9490169,3.95015152 80.1226348,8.30706061 93,11.9570758 C93,24.0945152 92.9817135,33.7082727 92.9817135,43.8429242 C92.9817135,72.395803 66.9328315,88.1034091 46.5,93 C26.0671685,88.1034091 0.0182865169,72.395803 0.0182865169,43.8429242 Z"/>
    <path fill="#FFF" d="M43.6718457,25.4526316 L49.3281543,25.4526316 C49.8732536,25.4526316 50.3110444,25.8975518 50.288387,26.4463888 L49.0735085,55.8748327 C49.0624819,56.1419338 48.8253951,56.3730424 48.5447029,56.3730424 L44.4552971,56.3730424 C44.1664522,56.3730424 43.9378505,56.1499863 43.9264915,55.8748327 L42.711613,26.4463888 C42.6891249,25.9016513 43.1188665,25.4526316 43.6718457,25.4526316 Z M46.5,67.5473684 C44.3850743,67.5473684 42.6705882,66.0133546 42.6705882,64.1210526 C42.6705882,62.2287507 44.3850743,60.6947368 46.5,60.6947368 C48.6149257,60.6947368 50.3294118,62.2287507 50.3294118,64.1210526 C50.3294118,66.0133546 48.6149257,67.5473684 46.5,67.5473684 Z"/>
  </g>
</svg>
