<svg xmlns="http://www.w3.org/2000/svg" xmlns:xlink="http://www.w3.org/1999/xlink" width="48" height="48" viewBox="0 0 48 48">
    <defs>
        <path id="a" d="M34.215 2.654H30.71v2.77c0 1.055-.988 1.91-2.207 1.91-1.215 0-2.204-.855-2.204-1.91v-2.77H12.695v2.77c0 1.055-.988 1.91-2.203 1.91-1.215 0-2.203-.855-2.203-1.91v-2.77H4.785C2.424 2.654.5 4.317.5 6.364V36.29C.5 38.337 2.42 40 4.785 40h29.43c2.361 0 4.285-1.667 4.285-3.71V6.364c0-2.046-1.924-3.709-4.285-3.709zm1.494 33.069c0 .66-.668 1.2-1.494 1.2H4.785c-.826 0-1.494-.536-1.494-1.2V13.155h32.422l-.004 22.568zM10.53 6.603c.583 0 1.053-.36 1.053-.8V.8c0-.443-.47-.799-1.053-.799C9.945 0 9.47.36 9.47.8v5.004c0 .444.474.8 1.058.8zm17.942 0c.584 0 1.058-.36 1.058-.8V.8c0-.443-.474-.799-1.058-.799-.583 0-1.053.36-1.053.8v5.004c0 .444.47.8 1.053.8zm.75 13.327L18.86 31.714c-.55.627-1.446.627-1.997 0l-5.816-6.616c-.55-.627-.55-1.646 0-2.274.55-.628 1.446-.628 2 0l4.817 5.48 9.356-10.648c.55-.628 1.446-.628 1.997 0 .555.627.555 1.647.004 2.274z"/>
    </defs>
    <g fill="none" fill-rule="evenodd" transform="translate(4.5 4)">
        <mask id="b" fill="#fff">
            <use xlink:href="#a"/>
        </mask>
        <use fill="#FFF" xlink:href="#a"/>
        <g fill="#FFF" mask="url(#b)">
            <path d="M-4.5-4h48v48h-48z"/>
        </g>
    </g>
</svg>
