<svg xmlns="http://www.w3.org/2000/svg" xmlns:xlink="http://www.w3.org/1999/xlink" width="48" height="48" viewBox="0 0 48 48">
  <defs>
    <path id="student-a" d="M36,8.40313223 L34.5595568,9.04169112 C34.6146949,12.7316986 35.0938488,16.9544505 35.3703402,17.3210595 L34.2385188,17.3210595 L33.1066975,17.3210595 C33.3756235,16.9544505 33.8354635,12.9496625 33.9117845,9.34421472 L17.9998888,16.8064481 L0,8.40313223 L17.9998888,0 L36,8.40313223 Z M17.9998857,18.6005185 L29.2868499,13.1061575 C32.0644421,15.9628708 33.7837885,19.8607427 33.7837885,24.1580468 C33.7837885,32.8932204 26.7030506,40 17.9998857,40 C9.2967207,40 2.21621149,32.8932204 2.21621149,24.1580468 C2.21621149,19.9246445 3.88263876,16.0767648 6.58769011,13.2318494 L17.9998857,18.6005185 Z M31.3215615,24.0682078 C31.2182845,24.2109769 31.1043963,24.3469519 30.9791651,24.4743882 C28.9825991,26.5050147 24.9222778,25.7595856 21.7351911,22.8464532 C20.9711337,24.7964221 19.678708,26.7590611 17.4930602,27.7331503 C19.1054249,26.4440509 19.5517387,24.795963 19.6310031,22.2083534 C19.0736368,22.7856731 18.4581372,23.3393968 17.7840469,23.8557527 C13.0063212,27.5155996 7.21256606,27.9565311 4.84332491,24.8407677 C4.78821032,24.7684191 4.73789824,24.6936834 4.68758616,24.6186722 C4.9306392,31.7796673 10.8069518,37.5311504 17.9998857,37.5311504 C25.3468202,37.5311504 31.3239399,31.5320479 31.3239399,24.1580927 C31.3239399,24.1279321 31.3220189,24.0984142 31.3215615,24.0682078 Z M11.6413547,29.5846957 C11.6413547,29.1000612 11.8402245,28.6182269 12.1817063,28.2754434 C12.5232338,27.9326598 13.0033024,27.7331044 13.4861611,27.7331044 C13.9692027,27.7331044 14.4489969,27.9326598 14.7907531,28.2754434 C15.1322806,28.618227 15.3309218,29.1000612 15.3309218,29.5846957 C15.3309218,30.0695139 15.1322806,30.5513023 14.7907531,30.8940858 C14.4490426,31.2368694 13.9692484,31.4364707 13.4861611,31.4364707 C13.0033024,31.4364707 12.5232338,31.2368693 12.1817063,30.8940858 C11.8401788,30.5513481 11.6413547,30.0695598 11.6413547,29.5846957 Z M20.6605709,29.5846957 C20.6605709,29.1000612 20.8593951,28.6182269 21.2009225,28.2754434 C21.5424501,27.9326598 22.0225186,27.7331044 22.5053773,27.7331044 C22.988419,27.7331044 23.4684419,27.9326598 23.8099693,28.2754434 C24.1514969,28.618227 24.3503667,29.1000612 24.3503667,29.5846957 C24.3503667,30.0695139 24.1514968,30.5513023 23.8099693,30.8940858 C23.4684876,31.2368694 22.9884647,31.4364707 22.5053773,31.4364707 C22.0225186,31.4364707 21.54245,31.2368693 21.2009225,30.8940858 C20.8593951,30.5513481 20.6605709,30.0695598 20.6605709,29.5846957 Z"/>
  </defs>
  <g fill="none" fill-rule="evenodd" transform="translate(6 4)">
    <mask id="student-b" fill="#fff">
      <use xlink:href="#student-a"/>
    </mask>
    <use fill="#000" fill-rule="nonzero" xlink:href="#student-a"/>
    <g fill="#FFF" mask="url(#student-b)">
      <rect width="48" height="48" transform="translate(-6 -4)"/>
    </g>
  </g>
</svg>
